<svg xmlns="http://www.w3.org/2000/svg" viewBox="0 0 1280 520" role="img" aria-label="The research-paper lifecycle and the skills at each stage">
  <defs>
    <linearGradient id="bar2" x1="0" y1="0" x2="1" y2="0">
      <stop offset="0" stop-color="#4f46e5"/>
      <stop offset="0.5" stop-color="#7c3aed"/>
      <stop offset="1" stop-color="#0ea5e9"/>
    </linearGradient>
    <linearGradient id="cond" x1="0" y1="0" x2="1" y2="1">
      <stop offset="0" stop-color="#f3f1ff"/>
      <stop offset="1" stop-color="#eef4fe"/>
    </linearGradient>
    <style>
      text { font-family: -apple-system, BlinkMacSystemFont, "Segoe UI", Helvetica, Arial, sans-serif; }
      .h    { font-size: 23px; font-weight: 800; fill: #14122b; }
      .cond { font-size: 15px; font-weight: 700; fill: #312e81; }
      .condl{ font-size: 12.5px; font-weight: 500; fill: #5b53a6; }
      .stage{ font-size: 14.5px; font-weight: 800; fill: #ffffff; }
      .skill{ font-size: 13px; font-weight: 500; fill: #3b3a52; }
      .note { font-size: 12.5px; font-weight: 500; fill: #6b6a85; }
      .dlabel{ font-size: 14.5px; font-weight: 800; fill: #14122b; }
    </style>
  </defs>

  <rect width="1280" height="520" rx="14" fill="#fbfbfe"/>
  <text x="40" y="46" class="h">How it works — one skill fires at each step; facts are verified live</text>

  <!-- Conductor / intelligence band (matches the hero) -->
  <rect x="40" y="66" width="1200" height="64" rx="12" fill="url(#cond)" stroke="#d8d4f5" stroke-width="1.3"/>
  <rect x="40" y="66" width="1200" height="5" rx="2.5" fill="url(#bar2)"/>
  <text x="64" y="95" class="cond">Conductor &amp; intelligence layer</text>
  <text x="64" y="115" class="condl">orchestrate-paper · assess-paper · paper-profile · reflect-paper · reflect-and-improve · render-workspace-html · local .paper-memory/</text>

  <!-- 7 stage columns, violet→cyan flow -->
  <!-- col geom: x 40, width 164, gap 8 -->
  <g>
    <!-- 1 Search -->
    <rect x="40" y="156" width="164" height="32" rx="9" fill="#8b5cf6"/>
    <text x="122" y="177" text-anchor="middle" class="stage">Search &amp; read</text>
    <rect x="40" y="192" width="164" height="152" rx="10" fill="#ffffff" stroke="#8b5cf6" stroke-opacity="0.35" stroke-width="1.3"/>
    <text x="56" y="216" class="skill">find-papers</text>
    <text x="56" y="238" class="skill">fetch-paper</text>
    <text x="56" y="260" class="skill">study-exemplars</text>
    <text x="56" y="282" class="skill">literature-review</text>

    <!-- 2 Write -->
    <rect x="212" y="156" width="164" height="32" rx="9" fill="#7d6cf0"/>
    <text x="294" y="177" text-anchor="middle" class="stage">Write</text>
    <rect x="212" y="192" width="164" height="152" rx="10" fill="#ffffff" stroke="#7d6cf0" stroke-opacity="0.35" stroke-width="1.3"/>
    <text x="228" y="216" class="skill">write-abstract</text>
    <text x="228" y="238" class="skill">draft-related-work</text>
    <text x="228" y="260" class="skill">polish-prose</text>
    <text x="228" y="282" class="skill">match-style</text>
    <text x="228" y="304" class="skill">fit-page-limit</text>
    <text x="228" y="326" class="skill">work-with-overleaf</text>

    <!-- 3 Verify -->
    <rect x="384" y="156" width="164" height="32" rx="9" fill="#6a8eea"/>
    <text x="466" y="177" text-anchor="middle" class="stage">Verify</text>
    <rect x="384" y="192" width="164" height="152" rx="10" fill="#ffffff" stroke="#6a8eea" stroke-opacity="0.4" stroke-width="1.3"/>
    <text x="400" y="216" class="skill">verify-citations</text>
    <text x="400" y="238" class="skill">check-originality</text>
    <text x="400" y="260" class="skill">verify-claims</text>
    <text x="400" y="282" class="skill">preflight-check</text>

    <!-- 4 Submit -->
    <rect x="556" y="156" width="164" height="32" rx="9" fill="#4ea8df"/>
    <text x="638" y="177" text-anchor="middle" class="stage">Submit</text>
    <rect x="556" y="192" width="164" height="152" rx="10" fill="#ffffff" stroke="#4ea8df" stroke-opacity="0.4" stroke-width="1.3"/>
    <text x="572" y="216" class="skill">parse-cfp</text>
    <text x="572" y="238" class="skill">select-venue</text>
    <text x="572" y="260" class="skill">tailor-to-venue</text>
    <text x="572" y="282" class="skill">anonymize-paper</text>
    <text x="572" y="304" class="skill">plan-submission</text>

    <!-- 5 Review & rebut -->
    <rect x="728" y="156" width="164" height="32" rx="9" fill="#34c0d6"/>
    <text x="810" y="177" text-anchor="middle" class="stage">Review &amp; rebut</text>
    <rect x="728" y="192" width="164" height="152" rx="10" fill="#ffffff" stroke="#34c0d6" stroke-opacity="0.45" stroke-width="1.3"/>
    <text x="744" y="216" class="skill">triage-reviews</text>
    <text x="744" y="238" class="skill">write-rebuttal</text>
    <text x="744" y="260" class="skill">simulate-reviewers</text>
    <text x="744" y="282" class="skill">benchmark-paper</text>

    <!-- 6 Camera-ready -->
    <rect x="900" y="156" width="164" height="32" rx="9" fill="#22ccc4"/>
    <text x="982" y="177" text-anchor="middle" class="stage">Camera-ready</text>
    <rect x="900" y="192" width="164" height="152" rx="10" fill="#ffffff" stroke="#22ccc4" stroke-opacity="0.45" stroke-width="1.3"/>
    <text x="916" y="216" class="skill">prepare-camera-ready</text>
    <text x="916" y="238" class="skill">verify-results</text>
    <text x="916" y="260" class="skill">test-research-code</text>
    <text x="916" y="282" class="skill">prepare-artifacts</text>
    <text x="916" y="304" class="skill">refactor-research-code</text>

    <!-- 7 Present -->
    <rect x="1072" y="156" width="168" height="32" rx="9" fill="#2bd4a8"/>
    <text x="1156" y="177" text-anchor="middle" class="stage">Present</text>
    <rect x="1072" y="192" width="168" height="152" rx="10" fill="#ffffff" stroke="#2bd4a8" stroke-opacity="0.45" stroke-width="1.3"/>
    <text x="1088" y="216" class="skill">make-slides</text>
    <text x="1088" y="238" class="skill">write-talk-script</text>
    <text x="1088" y="260" class="skill">rehearse-qa</text>
    <text x="1088" y="282" class="skill">make-poster</text>
  </g>

  <!-- data layer -->
  <rect x="40" y="372" width="1200" height="56" rx="12" fill="#f1eefe" stroke="#8b5cf6" stroke-opacity="0.3" stroke-width="1.3"/>
  <text x="64" y="393" class="dlabel">Venue rules →</text>
  <text x="200" y="392" class="note">re-confirmed live against each venue's public CFP at use time (page limits, blind level, templates, rebuttal format, camera-ready rail)</text>
  <text x="200" y="413" class="note">No venue fact is asserted without a source you can open — an unsourced rule is treated as unverified, never as fact.</text>

  <text x="40" y="468" class="note">Each SKILL.md tells the agent what it does and when to fire; bundled Python scripts run the deterministic checks (page count, anonymization lint, DOI resolution).</text>
  <text x="40" y="492" class="note">Copilot, not pilot — skills draft, check, and explain; you decide, you stay the author, and nothing is ever submitted on your behalf.</text>
</svg>
